<?xml version="1.0" encoding="UTF-8" standalone="no"?>
<!-- Created with Inkscape (http://www.inkscape.org/) -->

<svg
   xmlns:dc="http://purl.org/dc/elements/1.1/"
   xmlns:cc="http://creativecommons.org/ns#"
   xmlns:rdf="http://www.w3.org/1999/02/22-rdf-syntax-ns#"
   xmlns:svg="http://www.w3.org/2000/svg"
   xmlns="http://www.w3.org/2000/svg"
   xmlns:sodipodi="http://sodipodi.sourceforge.net/DTD/sodipodi-0.dtd"
   xmlns:inkscape="http://www.inkscape.org/namespaces/inkscape"
   width="24"
   height="24"
   viewBox="0 0 6.35 6.35"
   version="1.1"
   id="svg8"
   inkscape:version="0.92.3 (2405546, 2018-03-11)"
   sodipodi:docname="keyboard-3-inkscape.svg">
  <defs
     id="defs2" />
  <sodipodi:namedview
     id="base"
     pagecolor="#ffffff"
     bordercolor="#666666"
     borderopacity="1.0"
     inkscape:pageopacity="0.0"
     inkscape:pageshadow="2"
     inkscape:zoom="32"
     inkscape:cx="14.85635"
     inkscape:cy="13.490666"
     inkscape:document-units="px"
     inkscape:current-layer="layer2"
     showgrid="true"
     units="px"
     inkscape:window-width="1920"
     inkscape:window-height="1047"
     inkscape:window-x="0"
     inkscape:window-y="119"
     inkscape:window-maximized="1">
    <inkscape:grid
       type="xygrid"
       id="grid4520" />
  </sodipodi:namedview>
  <metadata
     id="metadata5">
    <rdf:RDF>
      <cc:Work
         rdf:about="">
        <dc:format>image/svg+xml</dc:format>
        <dc:type
           rdf:resource="http://purl.org/dc/dcmitype/StillImage" />
        <dc:title></dc:title>
      </cc:Work>
    </rdf:RDF>
  </metadata>
  <g
     inkscape:groupmode="layer"
     id="layer2"
     inkscape:label="Layer 2">
    <path
       style="fill:#666666;fill-opacity:1;stroke-width:0.96824586"
       d="M 5.5 6 C 4.946 6 4.5 6.446 4.5 7 L 4.5 17 C 4.5 17.554 4.946 18 5.5 18 L 18.5 18 C 19.054 18 19.5 17.554 19.5 17 L 19.5 7 C 19.5 6.446 19.054 6 18.5 6 L 5.5 6 z M 7 8 L 8 8 C 8.277 8 8.5 8.223 8.5 8.5 L 8.5 9.5 C 8.5 9.777 8.277 10 8 10 L 7 10 C 6.723 10 6.5 9.777 6.5 9.5 L 6.5 8.5 C 6.5 8.223 6.723 8 7 8 z M 10 8 L 11 8 C 11.277 8 11.5 8.223 11.5 8.5 L 11.5 9.5 C 11.5 9.777 11.277 10 11 10 L 10 10 C 9.723 10 9.5 9.777 9.5 9.5 L 9.5 8.5 C 9.5 8.223 9.723 8 10 8 z M 13 8 L 14 8 C 14.277 8 14.5 8.223 14.5 8.5 L 14.5 9.5 C 14.5 9.777 14.277 10 14 10 L 13 10 C 12.723 10 12.5 9.777 12.5 9.5 L 12.5 8.5 C 12.5 8.223 12.723 8 13 8 z M 16 8 L 17 8 C 17.277 8 17.5 8.223 17.5 8.5 L 17.5 9.5 C 17.5 9.777 17.277 10 17 10 L 16 10 C 15.723 10 15.5 9.777 15.5 9.5 L 15.5 8.5 C 15.5 8.223 15.723 8 16 8 z M 7 11 L 8 11 C 8.277 11 8.5 11.223 8.5 11.5 L 8.5 12.5 C 8.5 12.777 8.277 13 8 13 L 7 13 C 6.723 13 6.5 12.777 6.5 12.5 L 6.5 11.5 C 6.5 11.223 6.723 11 7 11 z M 10 11 L 11 11 C 11.277 11 11.5 11.223 11.5 11.5 L 11.5 12.5 C 11.5 12.777 11.277 13 11 13 L 10 13 C 9.723 13 9.5 12.777 9.5 12.5 L 9.5 11.5 C 9.5 11.223 9.723 11 10 11 z M 13 11 L 14 11 C 14.277 11 14.5 11.223 14.5 11.5 L 14.5 12.5 C 14.5 12.777 14.277 13 14 13 L 13 13 C 12.723 13 12.5 12.777 12.5 12.5 L 12.5 11.5 C 12.5 11.223 12.723 11 13 11 z M 16 11 L 17 11 C 17.277 11 17.5 11.223 17.5 11.5 L 17.5 12.5 C 17.5 12.777 17.277 13 17 13 L 16 13 C 15.723 13 15.5 12.777 15.5 12.5 L 15.5 11.5 C 15.5 11.223 15.723 11 16 11 z M 8 14 L 16 14 C 16.277 14 16.5 14.223 16.5 14.5 L 16.5 15.5 C 16.5 15.777 16.277 16 16 16 L 8 16 C 7.723 16 7.5 15.777 7.5 15.5 L 7.5 14.5 C 7.5 14.223 7.723 14 8 14 z "
       transform="scale(0.26458333)"
       id="rect4615" />
  </g>
</svg>
