<?xml version="1.0" encoding="UTF-8" standalone="no"?>
<!-- Created with Inkscape (http://www.inkscape.org/) -->

<svg
   xmlns:dc="http://purl.org/dc/elements/1.1/"
   xmlns:cc="http://creativecommons.org/ns#"
   xmlns:rdf="http://www.w3.org/1999/02/22-rdf-syntax-ns#"
   xmlns:svg="http://www.w3.org/2000/svg"
   xmlns="http://www.w3.org/2000/svg"
   xmlns:sodipodi="http://sodipodi.sourceforge.net/DTD/sodipodi-0.dtd"
   xmlns:inkscape="http://www.inkscape.org/namespaces/inkscape"
   width="24"
   height="24"
   viewBox="0 0 6.35 6.35"
   version="1.1"
   id="svg8"
   inkscape:version="0.92.3 (2405546, 2018-03-11)"
   sodipodi:docname="keyboard-2-inkscape.svg">
  <defs
     id="defs2" />
  <sodipodi:namedview
     id="base"
     pagecolor="#ffffff"
     bordercolor="#666666"
     borderopacity="1.0"
     inkscape:pageopacity="0.0"
     inkscape:pageshadow="2"
     inkscape:zoom="45.254834"
     inkscape:cx="7.6378732"
     inkscape:cy="13.795003"
     inkscape:document-units="px"
     inkscape:current-layer="layer2"
     showgrid="true"
     units="px"
     inkscape:window-width="1920"
     inkscape:window-height="1047"
     inkscape:window-x="0"
     inkscape:window-y="119"
     inkscape:window-maximized="1">
    <inkscape:grid
       type="xygrid"
       id="grid4520" />
  </sodipodi:namedview>
  <metadata
     id="metadata5">
    <rdf:RDF>
      <cc:Work
         rdf:about="">
        <dc:format>image/svg+xml</dc:format>
        <dc:type
           rdf:resource="http://purl.org/dc/dcmitype/StillImage" />
        <dc:title></dc:title>
      </cc:Work>
    </rdf:RDF>
  </metadata>
  <g
     inkscape:groupmode="layer"
     id="layer2"
     inkscape:label="Layer 2">
    <path
       style="fill:#666666;fill-opacity:1;stroke-width:0.99999994"
       d="M 5 6 C 4.446 6 4 6.446 4 7 L 4 17 C 4 17.554 4.446 18 5 18 L 19 18 C 19.554 18 20 17.554 20 17 L 20 7 C 20 6.446 19.554 6 19 6 L 5 6 z M 5.5 8 L 6.5 8 C 6.777 8 7 8.223 7 8.5 L 7 9.5 C 7 9.777 6.777 10 6.5 10 L 5.5 10 C 5.223 10 5 9.777 5 9.5 L 5 8.5 C 5 8.223 5.223 8 5.5 8 z M 8.5 8 L 9.5 8 C 9.777 8 10 8.223 10 8.5 L 10 9.5 C 10 9.777 9.777 10 9.5 10 L 8.5 10 C 8.223 10 8 9.777 8 9.5 L 8 8.5 C 8 8.223 8.223 8 8.5 8 z M 11.5 8 L 12.5 8 C 12.777 8 13 8.223 13 8.5 L 13 9.5 C 13 9.777 12.777 10 12.5 10 L 11.5 10 C 11.223 10 11 9.777 11 9.5 L 11 8.5 C 11 8.223 11.223 8 11.5 8 z M 14.5 8 L 15.5 8 C 15.777 8 16 8.223 16 8.5 L 16 9.5 C 16 9.777 15.777 10 15.5 10 L 14.5 10 C 14.223 10 14 9.777 14 9.5 L 14 8.5 C 14 8.223 14.223 8 14.5 8 z M 17.5 8 L 18.5 8 C 18.777 8 19 8.223 19 8.5 L 19 9.5 C 19 9.777 18.777 10 18.5 10 L 17.5 10 C 17.223 10 17 9.777 17 9.5 L 17 8.5 C 17 8.223 17.223 8 17.5 8 z M 5.5 11 L 6.5 11 C 6.777 11 7 11.223 7 11.5 L 7 12.5 C 7 12.777 6.777 13 6.5 13 L 5.5 13 C 5.223 13 5 12.777 5 12.5 L 5 11.5 C 5 11.223 5.223 11 5.5 11 z M 8.5 11 L 9.5 11 C 9.777 11 10 11.223 10 11.5 L 10 12.5 C 10 12.777 9.777 13 9.5 13 L 8.5 13 C 8.223 13 8 12.777 8 12.5 L 8 11.5 C 8 11.223 8.223 11 8.5 11 z M 11.5 11 L 12.5 11 C 12.777 11 13 11.223 13 11.5 L 13 12.5 C 13 12.777 12.777 13 12.5 13 L 11.5 13 C 11.223 13 11 12.777 11 12.5 L 11 11.5 C 11 11.223 11.223 11 11.5 11 z M 14.5 11 L 15.5 11 C 15.777 11 16 11.223 16 11.5 L 16 12.5 C 16 12.777 15.777 13 15.5 13 L 14.5 13 C 14.223 13 14 12.777 14 12.5 L 14 11.5 C 14 11.223 14.223 11 14.5 11 z M 17.5 11 L 18.5 11 C 18.777 11 19 11.223 19 11.5 L 19 12.5 C 19 12.777 18.777 13 18.5 13 L 17.5 13 C 17.223 13 17 12.777 17 12.5 L 17 11.5 C 17 11.223 17.223 11 17.5 11 z M 7.5 14 L 16.5 14 C 16.777 14 17 14.223 17 14.5 L 17 15.5 C 17 15.777 16.777 16 16.5 16 L 7.5 16 C 7.223 16 7 15.777 7 15.5 L 7 14.5 C 7 14.223 7.223 14 7.5 14 z "
       transform="scale(0.26458333)"
       id="rect4615" />
  </g>
</svg>
