<?xml version="1.0" encoding="UTF-8" standalone="no"?>
<!-- Created with Inkscape (http://www.inkscape.org/) -->

<svg
   xmlns:dc="http://purl.org/dc/elements/1.1/"
   xmlns:cc="http://creativecommons.org/ns#"
   xmlns:rdf="http://www.w3.org/1999/02/22-rdf-syntax-ns#"
   xmlns:svg="http://www.w3.org/2000/svg"
   xmlns="http://www.w3.org/2000/svg"
   xmlns:sodipodi="http://sodipodi.sourceforge.net/DTD/sodipodi-0.dtd"
   xmlns:inkscape="http://www.inkscape.org/namespaces/inkscape"
   width="24"
   height="24"
   viewBox="0 0 6.35 6.35"
   version="1.1"
   id="svg8"
   inkscape:version="0.92.3 (2405546, 2018-03-11)"
   sodipodi:docname="keyboard-inkscape.svg">
  <defs
     id="defs2" />
  <sodipodi:namedview
     id="base"
     pagecolor="#ffffff"
     bordercolor="#666666"
     borderopacity="1.0"
     inkscape:pageopacity="0.0"
     inkscape:pageshadow="2"
     inkscape:zoom="44.8"
     inkscape:cx="14.879039"
     inkscape:cy="13.465685"
     inkscape:document-units="px"
     inkscape:current-layer="layer1"
     showgrid="true"
     units="px"
     inkscape:window-width="1920"
     inkscape:window-height="1047"
     inkscape:window-x="0"
     inkscape:window-y="119"
     inkscape:window-maximized="1">
    <inkscape:grid
       type="xygrid"
       id="grid4520" />
  </sodipodi:namedview>
  <metadata
     id="metadata5">
    <rdf:RDF>
      <cc:Work
         rdf:about="">
        <dc:format>image/svg+xml</dc:format>
        <dc:type
           rdf:resource="http://purl.org/dc/dcmitype/StillImage" />
        <dc:title></dc:title>
      </cc:Work>
    </rdf:RDF>
  </metadata>
  <g
     inkscape:label="Layer 1"
     inkscape:groupmode="layer"
     id="layer1"
     transform="translate(0,-290.64998)">
    <path
       style="fill:#666666;fill-opacity:1;stroke-width:0.3481755"
       d="m 1.4113867,292.23748 c -0.1955107,0 -0.3530534,0.19693 -0.3530534,0.44132 v 2.29236 c 0,0.24439 0.1575427,0.44132 0.3530534,0.44132 h 3.5272264 c 0.1955107,0 0.3530535,-0.19693 0.3530535,-0.44132 v -2.29236 c 0,-0.24439 -0.1575428,-0.44132 -0.3530535,-0.44132 z m 0.07028,1.5875 h 2.1166668 c 0.1172633,0 0.2116667,0.118 0.2116667,0.26458 0,0.14658 -0.094403,0.26459 -0.2116667,0.26459 H 1.4816666 C 1.3644032,294.35415 1.27,294.23614 1.27,294.08956 c 0,-0.14658 0.094403,-0.26458 0.2116667,-0.26458 z m 2.7516667,0 H 4.868333 c 0.1172632,0 0.2116667,0.118 0.2116667,0.26458 0,0.14658 -0.094404,0.26459 -0.2116667,0.26459 H 4.2333332 c -0.1172633,0 -0.2116668,-0.11801 -0.2116668,-0.26459 0,-0.14658 0.094403,-0.26458 0.211667,-0.26458 z m -2.7516667,0.79375 h 0.6350001 c 0.1172634,0 0.2116667,0.118 0.2116667,0.26458 0,0.14658 -0.094403,0.26459 -0.2116667,0.26459 h -0.635 c -0.1172634,0 -0.2116666,-0.11801 -0.2116666,-0.26459 0,-0.14658 0.094403,-0.26458 0.2116665,-0.26458 z m 1.2700001,0 H 4.868333 c 0.1172632,0 0.2116667,0.118 0.2116667,0.26458 0,0.14658 -0.094404,0.26459 -0.2116667,0.26459 H 2.7516666 c -0.1172633,0 -0.2116667,-0.11801 -0.2116667,-0.26459 0,-0.14658 0.094403,-0.26458 0.2116669,-0.26458 z"
       id="rect10"
       inkscape:connector-curvature="0" />
  </g>
</svg>
