<?xml version="1.0" encoding="UTF-8" standalone="no"?>
<!-- Created with Inkscape (http://www.inkscape.org/) -->

<svg
   xmlns:dc="http://purl.org/dc/elements/1.1/"
   xmlns:cc="http://creativecommons.org/ns#"
   xmlns:rdf="http://www.w3.org/1999/02/22-rdf-syntax-ns#"
   xmlns:svg="http://www.w3.org/2000/svg"
   xmlns="http://www.w3.org/2000/svg"
   xmlns:sodipodi="http://sodipodi.sourceforge.net/DTD/sodipodi-0.dtd"
   xmlns:inkscape="http://www.inkscape.org/namespaces/inkscape"
   width="48"
   height="48"
   viewBox="0 0 12.7 12.7"
   version="1.1"
   id="svg8"
   inkscape:version="0.92.3 (2405546, 2018-03-11)"
   sodipodi:docname="hackspeed-symbolic.svg">
  <defs
     id="defs2" />
  <sodipodi:namedview
     id="base"
     pagecolor="#ffffff"
     bordercolor="#666666"
     borderopacity="1.0"
     inkscape:pageopacity="0.0"
     inkscape:pageshadow="2"
     inkscape:zoom="8"
     inkscape:cx="12.827433"
     inkscape:cy="32.552405"
     inkscape:document-units="px"
     inkscape:current-layer="layer2"
     showgrid="true"
     units="px"
     inkscape:window-width="1920"
     inkscape:window-height="1017"
     inkscape:window-x="1920"
     inkscape:window-y="30"
     inkscape:window-maximized="1">
    <inkscape:grid
       type="xygrid"
       id="grid4520" />
  </sodipodi:namedview>
  <metadata
     id="metadata5">
    <rdf:RDF>
      <cc:Work
         rdf:about="">
        <dc:format>image/svg+xml</dc:format>
        <dc:type
           rdf:resource="http://purl.org/dc/dcmitype/StillImage" />
        <dc:title></dc:title>
      </cc:Work>
    </rdf:RDF>
  </metadata>
  <g
     inkscape:groupmode="layer"
     id="layer2"
     inkscape:label="Layer 2"
     transform="translate(0,6.35)">
    <path
       style="fill:#666666;fill-opacity:1;stroke-width:0.65716183"
       d="m 2.0533967,-4.2678442 c -0.3760073,0 -0.6787137,0.3027063 -0.6787137,0.6787138 v 6.7871377 c 0,0.3760075 0.3027064,0.6787138 0.6787137,0.6787138 h 8.8232793 c 0.376008,0 0.678714,-0.3027063 0.678714,-0.6787138 v -6.7871377 c 0,-0.3760075 -0.302706,-0.6787138 -0.678714,-0.6787138 z m 1.0180706,1.3574275 h 0.6787138 c 0.1880038,0 0.3393569,0.1513532 0.3393569,0.3393569 v 0.6787138 c 0,0.1880037 -0.1513531,0.3393568 -0.3393569,0.3393568 H 3.0714673 c -0.1880037,0 -0.3393569,-0.1513531 -0.3393569,-0.3393568 v -0.6787138 c 0,-0.1880037 0.1513532,-0.3393569 0.3393569,-0.3393569 z m 2.0361414,0 h 0.6787138 c 0.1880037,0 0.3393569,0.1513532 0.3393569,0.3393569 v 0.6787138 c 0,0.1880037 -0.1513532,0.3393568 -0.3393569,0.3393568 H 5.1076087 c -0.1880037,0 -0.3393569,-0.1513531 -0.3393569,-0.3393568 v -0.6787138 c 0,-0.1880037 0.1513532,-0.3393569 0.3393569,-0.3393569 z m 2.0361413,0 h 0.6787138 c 0.1880038,0 0.3393569,0.1513532 0.3393569,0.3393569 v 0.6787138 c 0,0.1880037 -0.1513531,0.3393568 -0.3393569,0.3393568 H 7.14375 c -0.1880037,0 -0.3393569,-0.1513531 -0.3393569,-0.3393568 v -0.6787138 c 0,-0.1880037 0.1513532,-0.3393569 0.3393569,-0.3393569 z m 2.0361414,0 h 0.6787142 c 0.1880034,0 0.3393554,0.1513532 0.3393554,0.3393569 v 0.6787138 c 0,0.1880037 -0.151352,0.3393568 -0.3393554,0.3393568 H 9.1798914 c -0.1880038,0 -0.3393569,-0.1513531 -0.3393569,-0.3393568 v -0.6787138 c 0,-0.1880037 0.1513531,-0.3393569 0.3393569,-0.3393569 z m -6.1084241,2.0361413 h 0.6787138 c 0.1880038,0 0.3393569,0.15135317 0.3393569,0.33935689 v 0.67871378 c 0,0.18800374 -0.1513531,0.33935696 -0.3393569,0.33935696 H 3.0714673 c -0.1880037,0 -0.3393569,-0.15135322 -0.3393569,-0.33935696 v -0.67871378 c 0,-0.18800372 0.1513532,-0.33935689 0.3393569,-0.33935689 z m 2.0361414,0 h 0.6787138 c 0.1880037,0 0.3393569,0.15135317 0.3393569,0.33935689 v 0.67871378 c 0,0.18800374 -0.1513532,0.33935696 -0.3393569,0.33935696 H 5.1076087 c -0.1880037,0 -0.3393569,-0.15135322 -0.3393569,-0.33935696 v -0.67871378 c 0,-0.18800372 0.1513532,-0.33935689 0.3393569,-0.33935689 z m 2.0361413,0 h 0.6787138 c 0.1880038,0 0.3393569,0.15135317 0.3393569,0.33935689 v 0.67871378 c 0,0.18800374 -0.1513531,0.33935696 -0.3393569,0.33935696 H 7.14375 c -0.1880037,0 -0.3393569,-0.15135322 -0.3393569,-0.33935696 v -0.67871378 c 0,-0.18800372 0.1513532,-0.33935689 0.3393569,-0.33935689 z m 2.0361414,0 h 0.6787142 c 0.1880034,0 0.3393554,0.15135317 0.3393554,0.33935689 v 0.67871378 c 0,0.18800374 -0.151352,0.33935696 -0.3393554,0.33935696 H 9.1798914 c -0.1880038,0 -0.3393569,-0.15135322 -0.3393569,-0.33935696 v -0.67871378 c 0,-0.18800372 0.1513531,-0.33935689 0.3393569,-0.33935689 z M 3.7501811,1.161866 h 5.4297103 c 0.1880037,0 0.3393569,0.1513532 0.3393569,0.3393569 v 0.6787138 c 0,0.1880037 -0.1513532,0.3393569 -0.3393569,0.3393569 H 3.7501811 c -0.1880037,0 -0.3393569,-0.1513532 -0.3393569,-0.3393569 V 1.5012229 c 0,-0.1880037 0.1513532,-0.3393569 0.3393569,-0.3393569 z"
       id="rect4615"
       inkscape:connector-curvature="0" />
  </g>
</svg>
